<svg width="30" height="31" viewBox="0 0 30 31" fill="none" xmlns="http://www.w3.org/2000/svg">
<path d="M30 15.655C30 7.36987 23.2852 0.655029 15 0.655029C6.71484 0.655029 0 7.36987 0 15.655C0 23.9402 6.71484 30.655 15 30.655C15.0879 30.655 15.1758 30.655 15.2637 30.6492V18.9773H12.041V15.2214H15.2637V12.4558C15.2637 9.25073 17.2207 7.50464 20.0801 7.50464C21.4512 7.50464 22.6289 7.60425 22.9688 7.65112V11.0027H21C19.4473 11.0027 19.1426 11.741 19.1426 12.825V15.2156H22.8633L22.377 18.9714H19.1426V30.075C25.4121 28.2761 30 22.5046 30 15.655Z" fill="#800000"/>
</svg>
