<svg width="47" height="33" viewBox="0 0 47 33" fill="none" xmlns="http://www.w3.org/2000/svg">
<path d="M42.1129 16.1877L43.6246 14.1333C44.2069 13.3581 44.4965 12.3954 44.4406 11.4206C44.3045 9.29373 42.596 7.62747 40.5509 7.62747C38.5058 7.62747 36.7976 9.29373 36.6612 11.4201C36.6316 11.9029 36.6905 12.3871 36.8349 12.8479L27.381 13.0247L28.8401 11.0409C29.7713 9.80267 30.2348 8.2643 30.1461 6.70653C30.0457 5.11304 29.3814 3.6109 28.2765 2.47926C27.7073 1.8984 27.0314 1.43762 26.2874 1.12323C25.5434 0.808849 24.746 0.647034 23.9406 0.647034C23.1353 0.647034 22.3378 0.808849 21.5939 1.12323C20.8499 1.43762 20.174 1.8984 19.6047 2.47926C18.5001 3.61062 17.8357 5.1124 17.7352 6.70555C17.6378 8.19104 18.1 9.72834 19.0407 11.04L20.3029 12.7551L6.86847 12.8454C6.74957 12.8462 6.63385 12.8847 6.53735 12.9555C6.44085 13.0264 6.36835 13.1261 6.32988 13.2408L0.0308205 32.0167C0.00132091 32.1047 -0.00716555 32.1986 0.00606599 32.2906C0.0192975 32.3826 0.0538652 32.47 0.106898 32.5457C0.15993 32.6213 0.229897 32.683 0.310986 32.7255C0.392076 32.768 0.481948 32.7902 0.573137 32.7902H46.4269C46.5168 32.7902 46.6054 32.7686 46.6857 32.7272C46.7659 32.6858 46.8354 32.6258 46.8887 32.5519C46.9419 32.478 46.9774 32.3924 46.9922 32.302C47.007 32.2116 47.0007 32.1189 46.9739 32.0314L42.1129 16.1877ZM37.8046 11.4968C37.8895 10.1694 38.9397 8.7963 40.5504 8.7963C42.1611 8.7963 43.2113 10.1697 43.2963 11.4983C43.3339 12.1938 43.125 12.8798 42.7077 13.4312L40.5504 16.363L38.3973 13.437C37.9831 12.881 37.7735 12.1943 37.805 11.4968H37.8046ZM37.3899 14.0062C37.4185 14.0486 37.4472 14.0909 37.4768 14.1328L40.0925 17.688C40.1459 17.7606 40.2151 17.8195 40.2947 17.86C40.3743 17.9006 40.462 17.9217 40.551 17.9217C40.64 17.9217 40.7277 17.9006 40.8073 17.86C40.8869 17.8195 40.9562 17.7606 41.0095 17.688L41.2655 17.3402L41.9171 19.4643L33.03 19.4663L32.3861 14.1003L37.3899 14.0062ZM19.9623 10.3447C19.1845 9.26032 18.7999 7.99565 18.8795 6.78299C18.9618 5.47203 19.5081 4.23612 20.4168 3.30494C20.8796 2.83297 21.429 2.45858 22.0337 2.20315C22.6384 1.94771 23.2865 1.81624 23.941 1.81624C24.5955 1.81624 25.2437 1.94771 25.8484 2.20315C26.453 2.45858 27.0025 2.83297 27.4652 3.30494C28.3745 4.23651 28.921 5.47305 29.0032 6.78465C29.0733 8.06307 28.6902 9.32457 27.9239 10.339L23.9411 15.7517L19.9623 10.3447ZM1.375 31.6214L4.35263 22.7456L7.74275 22.7351L10.848 26.9551C10.9014 27.0277 10.9706 27.0866 11.0502 27.1272C11.1298 27.1678 11.2176 27.1889 11.3065 27.1889C11.3955 27.1889 11.4833 27.1678 11.5629 27.1272C11.6425 27.0866 11.7117 27.0277 11.7651 26.9551L14.2393 23.5922L14.2697 31.6214H1.375ZM14.045 21.909L11.3064 25.6306L8.57213 21.9148C8.03459 21.1648 7.76854 20.2931 7.82338 19.4584C7.93094 17.7762 9.26328 16.0363 11.3064 16.0363C13.3496 16.0363 14.6819 17.7762 14.7897 19.46C14.8376 20.341 14.5733 21.2102 14.045 21.909ZM23.0786 25.4948C23.0245 25.5492 22.9815 25.614 22.9522 25.6855C22.9229 25.757 22.9078 25.8337 22.9078 25.9112L22.9109 31.6214H15.4161L15.3801 21.9407C15.7959 21.1575 15.9878 20.2711 15.9341 19.3823C15.7722 16.8507 13.7398 14.8675 11.3071 14.8675C8.87448 14.8675 6.84211 16.8507 6.68019 19.3813C6.63663 20.1312 6.76896 20.8809 7.06622 21.5683L4.74583 21.5755L7.28335 14.0115L21.1597 13.9187L23.4832 17.0763C23.5366 17.1489 23.6058 17.2078 23.6854 17.2484C23.765 17.2889 23.8527 17.3101 23.9417 17.3101C24.0307 17.3101 24.1185 17.2889 24.1981 17.2484C24.2776 17.2078 24.3469 17.1489 24.4003 17.0763L26.5092 14.2096L31.2339 14.1213L31.9538 20.1213C31.9708 20.2629 32.0381 20.3933 32.1429 20.4879C32.2477 20.5825 32.3828 20.6347 32.5228 20.6347L42.2757 20.6324L43.7139 25.3201L32.0704 25.3403C32.1722 24.9386 32.2105 24.5229 32.1837 24.1089C32.0476 21.9819 30.339 20.3157 28.2939 20.3157C26.2488 20.3157 24.5402 21.9819 24.4042 24.108C24.3783 24.5233 24.4184 24.9401 24.523 25.3423L23.4896 25.3267C23.4135 25.3246 23.3377 25.3384 23.267 25.3673C23.1963 25.3962 23.1322 25.4396 23.0786 25.4948ZM30.451 26.1194L28.2938 29.0512L26.1408 26.1254C25.7264 25.5694 25.5166 24.8828 25.5479 24.1852C25.6329 22.8577 26.6832 21.4847 28.2938 21.4847C29.9044 21.4847 30.9548 22.8581 31.0398 24.1869C31.0772 24.8822 30.8682 25.5681 30.451 26.1195V26.1194ZM24.0572 31.6214L24.0545 26.5042L25.0205 26.5188C25.0826 26.6213 25.149 26.722 25.2196 26.8207L27.8353 30.3759C27.8887 30.4485 27.9579 30.5074 28.0375 30.548C28.1171 30.5885 28.2048 30.6097 28.2938 30.6097C28.3828 30.6097 28.4706 30.5885 28.5502 30.548C28.6297 30.5074 28.699 30.4485 28.7524 30.3759L31.3676 26.8218C31.4424 26.7205 31.5122 26.6166 31.5771 26.5101L44.0723 26.4885L45.647 31.6214H24.0572Z" fill="#6C97FD"/>
</svg>
