<svg width="60" height="25" viewBox="0 0 60 25" fill="none" xmlns="http://www.w3.org/2000/svg">
<path d="M25 9.71307H28.9995V11.7221H25V9.71307Z" fill="#6C97FD"/>
<path d="M59.1418 6.7101L52.349 5.7358C51.1104 4.97156 49.825 4.28742 48.4997 3.68707C44.1231 1.69596 39.373 0.668536 34.5679 0.673849H33.3878C27.7173 0.677935 22.1374 2.1071 17.157 4.83097L13.7288 6.70928C9.71598 6.75464 5.78043 7.82662 2.29411 9.82263C0.877278 10.6388 0.00244141 12.1529 0 13.793V19.7569C0 20.3119 0.447591 20.7614 1.00016 20.7614H4.35791C5.45003 23.8907 8.86108 25.5385 11.9767 24.4416C13.6918 23.838 15.0399 22.4836 15.6409 20.7614H42.358C43.4501 23.8907 46.8612 25.5385 49.9768 24.4416C51.6915 23.838 53.0399 22.4836 53.6409 20.7614H53.9998C54.1272 20.7614 54.2533 20.7373 54.3717 20.6899L57.6107 19.3846C59.0576 18.8092 60.0053 17.4025 60 15.8401V7.70442C60 7.20501 59.6342 6.78121 59.1418 6.7101ZM13.9189 19.5562C13.4766 21.73 11.3635 23.1322 9.19922 22.688C7.0345 22.2437 5.63843 20.1214 6.08073 17.9472C6.52344 15.7735 8.63647 14.3713 10.8008 14.8155C12.6632 15.1976 14.0002 16.8434 13.9998 18.7528C13.9998 19.0225 13.9726 19.2918 13.9189 19.5562ZM31.9999 18.7528H15.9998C15.9998 15.4244 13.3138 12.7263 10 12.7263C6.6862 12.7263 3.99984 15.4244 3.99984 18.7528H1.99992V13.793C2.00114 12.873 2.49186 12.0234 3.28695 11.5665C6.55029 9.69512 10.2425 8.71019 13.9998 8.70897H31.9999V18.7528ZM31.9999 6.70029H17.922L18.1148 6.59444C22.3901 4.26086 27.1391 2.93795 31.9999 2.72666V6.70029ZM33.9998 2.68253H34.5658C38.5958 2.67803 42.5891 3.44635 46.3322 4.94663L44.5862 6.70029H33.9998V2.68253ZM51.9189 19.5562C51.4766 21.73 49.3636 23.1322 47.1989 22.688C45.0346 22.2437 43.6385 20.1214 44.0808 17.9472C44.5231 15.7735 46.6365 14.3713 48.8008 14.8155C50.6632 15.1976 52.0003 16.8434 51.9999 18.7528C51.9999 19.0225 51.9726 19.2918 51.9189 19.5562ZM58.0001 9.7131H55V11.7222H58.0001V15.8401C58.0025 16.5802 57.5533 17.2464 56.8681 17.5181L53.9998 18.6751C53.9998 18.5827 53.988 18.4912 53.9819 18.3988C53.9758 18.3065 53.9738 18.1982 53.964 18.0976C53.9538 17.9971 53.9339 17.8966 53.918 17.7964C53.9018 17.6959 53.89 17.5954 53.87 17.5042C53.8501 17.4127 53.8208 17.3113 53.7947 17.2157C53.7687 17.1205 53.7488 17.024 53.7187 16.9304C53.6889 16.8373 53.6527 16.7478 53.619 16.6562C53.5848 16.5651 53.5539 16.4707 53.5189 16.3799C53.4839 16.2896 53.4367 16.2075 53.3948 16.1221C53.3528 16.0367 53.3118 15.9431 53.265 15.8568C53.2178 15.7706 53.1649 15.697 53.1197 15.6169C53.0749 15.5364 53.02 15.4449 52.963 15.3627C52.9057 15.2802 52.8528 15.2152 52.7978 15.1408C52.7429 15.0664 52.6806 14.979 52.6168 14.9017C52.5529 14.8245 52.4931 14.764 52.4308 14.7007C52.369 14.6377 52.2998 14.5523 52.231 14.482C52.1618 14.4117 52.0939 14.3561 52.0251 14.294C51.956 14.2319 51.8819 14.1583 51.8058 14.093C51.7301 14.028 51.6528 13.9777 51.5771 13.9205C51.501 13.8633 51.425 13.802 51.3452 13.7484C51.265 13.6953 51.1751 13.6483 51.0893 13.5919C51.003 13.5355 50.933 13.4914 50.852 13.4485C50.7711 13.4051 50.6702 13.3598 50.5782 13.3156C50.4862 13.2715 50.4142 13.2323 50.3292 13.1963C50.2441 13.1599 50.129 13.1219 50.0293 13.086C49.9292 13.0496 49.8641 13.0214 49.779 12.9944C49.6651 12.9593 49.5483 12.9339 49.4319 12.9049C49.3559 12.8869 49.283 12.8628 49.2061 12.8469C49.0832 12.8215 48.9571 12.8076 48.8322 12.7893C48.7581 12.7794 48.6873 12.7631 48.6133 12.7562C48.4131 12.7361 48.2133 12.7251 48.0033 12.7251C44.6907 12.7284 42.0064 15.4244 42.0032 18.7515H34.0002V8.70856H45C45.2653 8.70856 45.5196 8.60271 45.7068 8.4143L48.3 5.80977C49.3884 6.33002 50.4468 6.91158 51.4701 7.55158C51.5881 7.62555 51.72 7.67418 51.8579 7.69421L58.0001 8.57492V9.7131Z" fill="#6C97FD"/>
</svg>
