<svg width="36" height="37" viewBox="0 0 36 37" fill="none" xmlns="http://www.w3.org/2000/svg">
<path d="M20.8127 11.3793C20.4246 11.3793 20.1099 11.6956 20.1099 12.0852C20.1099 12.4746 20.4246 12.7908 20.8127 12.7908C21.2008 12.7908 21.5156 12.4746 21.5156 12.0852C21.5156 11.6956 21.2008 11.3793 20.8127 11.3793Z" fill="#6C97FD"/>
<path d="M16.5488 25.1728C16.8231 24.8968 16.8231 24.4501 16.5488 24.1741C16.2741 23.8989 15.8291 23.8989 15.5542 24.1741C15.2801 24.4501 15.2801 24.8968 15.5542 25.1728C15.8291 25.448 16.2741 25.448 16.5488 25.1728Z" fill="#6C97FD"/>
<path d="M8.09911 36.5993C8.37165 36.8752 8.81537 36.8782 9.09148 36.6051L12.5005 33.2327C13.0797 32.6511 13.2558 31.79 13.0011 31.0416L13.7344 30.3314C14.1292 29.9485 14.649 29.7374 15.1985 29.7374H24.5461C26.2045 29.7374 27.7719 29.0979 28.9601 27.9367C29.009 27.889 28.589 28.3859 35.3372 20.2869C36.3381 19.0978 36.1884 17.3123 35.0031 16.3061C33.8253 15.3093 32.0609 15.4525 31.0573 16.6212L26.9081 20.9035C26.3841 20.256 25.5852 19.8524 24.7219 19.8524H16.881C15.7653 19.3836 14.5814 19.1464 13.3599 19.1464C9.97506 19.1464 7.01799 20.7156 5.4308 23.661C4.76234 23.5338 4.05735 23.7369 3.55017 24.2462L0.205166 27.615C-0.06793 27.8901 -0.0684794 28.3351 0.204067 28.6107L8.09911 36.5993ZM13.3596 20.5584C14.4366 20.5584 15.4779 20.776 16.4552 21.2053C16.5442 21.2445 16.6401 21.2646 16.7371 21.2646H24.7219C25.4844 21.2646 26.1284 21.889 26.1284 22.6766C26.1284 23.4555 25.4975 24.0889 24.7219 24.0889H18.985C18.5968 24.0889 18.2819 24.4051 18.2819 24.7949C18.2819 25.185 18.5968 25.5009 18.985 25.5009H24.7219C26.2729 25.5009 27.5345 24.234 27.5345 22.6766C27.5345 22.5525 27.5257 22.4294 27.5098 22.3075C31.5235 18.1645 32.0895 17.5824 32.1137 17.5534C32.6148 16.9594 33.5044 16.8841 34.0962 17.3851C34.6886 17.888 34.7636 18.7808 34.2611 19.3781L27.9543 26.949C27.0334 27.8368 25.8242 28.3254 24.5461 28.3254H15.1985C14.2825 28.3254 13.4154 28.6772 12.7577 29.3153L12.1601 29.8944L6.65148 24.3631C7.93893 21.9378 10.3548 20.5584 13.3596 20.5584ZM4.5453 25.244C4.77718 25.0112 5.13325 24.9693 5.41596 25.1447C5.52338 25.2104 11.5375 31.2645 11.5746 31.3144C11.7804 31.5928 11.751 31.9881 11.5101 32.2304L8.60381 35.1054L1.69483 28.1147L4.5453 25.244Z" fill="#6C97FD"/>
<path d="M10.9693 15.6158H27.845C29.0082 15.6158 29.9544 14.6657 29.9544 13.4976C29.9544 11.7178 29.9544 4.04514 29.9544 2.7653C29.9544 1.59719 29.0082 0.647034 27.845 0.647034H10.9693C9.80608 0.647034 8.85986 1.59719 8.85986 2.7653V13.4976C8.85986 14.6657 9.80608 15.6158 10.9693 15.6158ZM28.548 6.29555H10.2663V4.88356H28.548V6.29555ZM27.845 14.2039H10.9693C10.5817 14.2039 10.2663 13.8869 10.2663 13.4976V7.70781H28.548V13.4976C28.548 13.8869 28.2326 14.2039 27.845 14.2039ZM10.9693 2.0593H27.845C28.2326 2.0593 28.548 2.37602 28.548 2.7653V3.47129H10.2663V2.7653C10.2663 2.37602 10.5817 2.0593 10.9693 2.0593Z" fill="#6C97FD"/>
<path d="M26.4385 11.3793H23.6259C23.2377 11.3793 22.9229 11.6953 22.9229 12.0852C22.9229 12.4748 23.2377 12.7908 23.6259 12.7908H26.4385C26.827 12.7908 27.1418 12.4748 27.1418 12.0852C27.1418 11.6953 26.827 11.3793 26.4385 11.3793Z" fill="#6C97FD"/>
</svg>
