<svg width="31" height="31" viewBox="0 0 31 31" fill="none" xmlns="http://www.w3.org/2000/svg">
<path d="M18.6714 16.6548C18.6714 18.2405 17.386 19.5258 15.8003 19.5258C14.2146 19.5258 12.9292 18.2405 12.9292 16.6548C12.9292 15.0691 14.2146 13.7837 15.8003 13.7837C17.386 13.7837 18.6714 15.0691 18.6714 16.6548Z" fill="#800000"/>
<path d="M22.5142 11.5747C22.3762 11.2007 22.156 10.8622 21.8699 10.5843C21.592 10.2982 21.2538 10.078 20.8795 9.94002C20.576 9.82215 20.1201 9.68184 19.2803 9.64362C18.3719 9.60219 18.0995 9.59326 15.7997 9.59326C13.4997 9.59326 13.2273 9.60196 12.3191 9.64339C11.4794 9.68184 11.0232 9.82215 10.7199 9.94002C10.3457 10.078 10.0072 10.2982 9.72957 10.5843C9.44347 10.8622 9.22328 11.2005 9.08504 11.5747C8.96716 11.8782 8.82686 12.3344 8.78864 13.1742C8.74721 14.0824 8.73828 14.3548 8.73828 16.6549C8.73828 18.9547 8.74721 19.2271 8.78864 20.1355C8.82686 20.9753 8.96716 21.4313 9.08504 21.7348C9.22328 22.109 9.44324 22.4473 9.72934 22.7252C10.0072 23.0113 10.3455 23.2315 10.7197 23.3695C11.0232 23.4876 11.4794 23.6279 12.3191 23.6661C13.2273 23.7075 13.4995 23.7162 15.7995 23.7162C18.0998 23.7162 18.3721 23.7075 19.2801 23.6661C20.1199 23.6279 20.576 23.4876 20.8795 23.3695C21.6307 23.0797 22.2244 22.486 22.5142 21.7348C22.6321 21.4313 22.7724 20.9753 22.8108 20.1355C22.8523 19.2271 22.861 18.9547 22.861 16.6549C22.861 14.3548 22.8523 14.0824 22.8108 13.1742C22.7726 12.3344 22.6323 11.8782 22.5142 11.5747ZM15.7997 21.0776C13.3569 21.0776 11.3766 19.0975 11.3766 16.6546C11.3766 14.2117 13.3569 12.2316 15.7997 12.2316C18.2424 12.2316 20.2226 14.2117 20.2226 16.6546C20.2226 19.0975 18.2424 21.0776 15.7997 21.0776ZM20.3975 13.0904C19.8267 13.0904 19.3639 12.6276 19.3639 12.0568C19.3639 11.4859 19.8267 11.0231 20.3975 11.0231C20.9683 11.0231 21.4311 11.4859 21.4311 12.0568C21.4309 12.6276 20.9683 13.0904 20.3975 13.0904Z" fill="#800000"/>
<path d="M15.7998 0.655029C7.5168 0.655029 0.799805 7.37202 0.799805 15.655C0.799805 23.938 7.5168 30.655 15.7998 30.655C24.0828 30.655 30.7998 23.938 30.7998 15.655C30.7998 7.37202 24.0828 0.655029 15.7998 0.655029ZM24.3611 19.2061C24.3195 20.123 24.1737 20.749 23.9608 21.297C23.5134 22.454 22.5987 23.3686 21.4417 23.816C20.894 24.0289 20.2678 24.1745 19.3511 24.2164C18.4326 24.2582 18.1392 24.2683 15.8 24.2683C13.4606 24.2683 13.1674 24.2582 12.2487 24.2164C11.332 24.1745 10.7058 24.0289 10.1581 23.816C9.58315 23.5997 9.06267 23.2608 8.63237 22.8225C8.19429 22.3924 7.85532 21.8717 7.63902 21.297C7.42616 20.7493 7.28036 20.123 7.23871 19.2064C7.19637 18.2876 7.18652 17.9942 7.18652 15.655C7.18652 13.3159 7.19637 13.0224 7.23848 12.1039C7.28014 11.187 7.4257 10.561 7.63857 10.0131C7.85486 9.43837 8.19406 8.91766 8.63237 8.48759C9.06244 8.04929 9.58315 7.71031 10.1579 7.49402C10.7058 7.28116 11.3318 7.13559 12.2487 7.0937C13.1672 7.05182 13.4606 7.04175 15.7998 7.04175C18.139 7.04175 18.4324 7.05182 19.3509 7.09393C20.2678 7.13559 20.8938 7.28116 21.4417 7.49379C22.0165 7.71008 22.5372 8.04929 22.9675 8.48759C23.4055 8.91789 23.7448 9.43837 23.9608 10.0131C24.1739 10.561 24.3195 11.187 24.3614 12.1039C24.4032 13.0224 24.4131 13.3159 24.4131 15.655C24.4131 17.9942 24.4032 18.2876 24.3611 19.2061Z" fill="#800000"/>
</svg>
