<svg width="25" height="26" viewBox="0 0 25 26" fill="none" xmlns="http://www.w3.org/2000/svg">
<path id="play" d="M12.5 0C5.60708 0 0 5.63273 0 12.556C0 19.4792 5.60708 25.1119 12.5 25.1119C19.3929 25.1119 25 19.4792 25 12.556C25 5.63273 19.3929 0 12.5 0ZM12.5 24.0656C6.18184 24.0656 1.04165 18.9024 1.04165 12.556C1.04165 6.20952 6.18184 1.04631 12.5 1.04631C18.8182 1.04631 23.9583 6.20952 23.9583 12.556C23.9583 18.9024 18.8182 24.0656 12.5 24.0656Z" fill="#FEFEFE"/>
<path id="play" d="M17.4693 12.1162L10.1776 7.40772C10.0179 7.30301 9.81143 7.29737 9.64663 7.3883C9.47876 7.48026 9.375 7.65604 9.375 7.84762V17.2645C9.375 17.4561 9.47876 17.6319 9.64663 17.7239C9.72393 17.7663 9.8104 17.7877 9.89585 17.7877C9.99351 17.7877 10.0922 17.7601 10.1776 17.7044L17.4693 12.996C17.6178 12.8999 17.7084 12.7339 17.7084 12.5561C17.7084 12.3783 17.6178 12.2123 17.4693 12.1162ZM10.4167 16.3061V8.80608L16.2242 12.5561L10.4167 16.3061Z" fill="#FEFEFE"/>
</svg>
