<svg width="31" height="31" viewBox="0 0 31 31" fill="none" xmlns="http://www.w3.org/2000/svg">
<path d="M13.7319 18.4644L18.6112 15.6543L13.7319 12.8442V18.4644Z" fill="#800000"/>
<path d="M15.6001 0.655029C7.31709 0.655029 0.600098 7.37202 0.600098 15.655C0.600098 23.938 7.31709 30.655 15.6001 30.655C23.8831 30.655 30.6001 23.938 30.6001 15.655C30.6001 7.37202 23.8831 0.655029 15.6001 0.655029ZM24.9728 15.6704C24.9728 15.6704 24.9728 18.7124 24.5869 20.1793C24.3706 20.9823 23.7375 21.6153 22.9346 21.8314C21.4677 22.2175 15.6001 22.2175 15.6001 22.2175C15.6001 22.2175 9.74782 22.2175 8.26558 21.8161C7.46266 21.6 6.82957 20.9667 6.61328 20.1638C6.22716 18.7124 6.22716 15.655 6.22716 15.655C6.22716 15.655 6.22716 12.6132 6.61328 11.1463C6.82935 10.3434 7.478 9.69472 8.26558 9.47865C9.73248 9.09253 15.6001 9.09253 15.6001 9.09253C15.6001 9.09253 21.4677 9.09253 22.9346 9.49399C23.7375 9.71005 24.3706 10.3434 24.5869 11.1463C24.9884 12.6132 24.9728 15.6704 24.9728 15.6704Z" fill="#800000"/>
</svg>
