<svg width="65" height="53" viewBox="0 0 65 53" fill="none" xmlns="http://www.w3.org/2000/svg">
<path d="M41.6583 46.2925H6.04049C3.7598 46.2925 1.90428 44.3743 1.90428 42.0164V12.5575C1.90428 10.1996 3.7598 8.28141 6.04049 8.28141C6.56632 8.28141 6.99263 7.84067 6.99263 7.29704C6.99263 6.75328 6.56632 6.31268 6.04049 6.31268C2.70978 6.31268 0 9.11404 0 12.5575V42.0164C0 45.4598 2.70978 48.2612 6.04049 48.2612H41.6583C42.1841 48.2612 42.6104 47.8206 42.6104 47.2768C42.6104 46.7333 42.1841 46.2925 41.6583 46.2925Z" fill="#6C97FD"/>
<path d="M58.9597 6.31268H27.4121C26.8863 6.31268 26.46 6.75328 26.46 7.29704C26.46 7.84067 26.8863 8.28141 27.4121 8.28141H58.9597C61.2404 8.28141 63.0959 10.1996 63.0959 12.5575V42.0164C63.0959 44.3743 61.2404 46.2925 58.9597 46.2925H57.9421C57.4163 46.2925 56.9899 46.7332 56.9899 47.2768C56.9899 47.8206 57.4163 48.2612 57.9421 48.2612H58.9597C62.2904 48.2612 65.0002 45.4598 65.0002 42.0164V12.5575C65.0002 9.11404 62.2904 6.31268 58.9597 6.31268V6.31268Z" fill="#6C97FD"/>
<path d="M10.1108 8.28137C12.9526 8.28137 15.2647 10.6715 15.2647 13.6097C15.2647 14.1533 15.691 14.594 16.2168 14.594C16.7427 14.594 17.169 14.1533 17.169 13.6097C17.169 10.6717 19.481 8.28137 22.3228 8.28137C22.8487 8.28137 23.275 7.84064 23.275 7.29701C23.275 6.75324 22.8487 6.31264 22.3228 6.31264C19.481 6.31264 17.169 3.92235 17.169 0.984361C17.169 0.440731 16.7427 0 16.2168 0C15.691 0 15.2647 0.440731 15.2647 0.984361C15.2647 3.92235 12.9528 6.31264 10.1108 6.31264C9.585 6.31264 9.15869 6.75324 9.15869 7.29701C9.15869 7.84064 9.585 8.28137 10.1108 8.28137V8.28137ZM16.2168 4.64159C16.835 5.7404 17.7225 6.65796 18.7853 7.29701C17.7225 7.93592 16.835 8.85361 16.2168 9.95229C15.5987 8.85361 14.7112 7.93592 13.6485 7.29701C14.7111 6.65796 15.5987 5.7404 16.2168 4.64159V4.64159Z" fill="#6C97FD"/>
<path d="M53.8703 46.2924C52.1507 46.2924 50.7518 44.8461 50.7518 43.0685C50.7518 42.5248 50.3255 42.0841 49.7997 42.0841C49.2739 42.0841 48.8476 42.5248 48.8476 43.0685C48.8476 44.8462 47.4486 46.2924 45.729 46.2924C45.2032 46.2924 44.7769 46.7332 44.7769 47.2768C44.7769 47.8206 45.2032 48.2612 45.729 48.2612C47.4486 48.2612 48.8476 49.7075 48.8476 51.4853C48.8476 52.0289 49.2739 52.4696 49.7997 52.4696C50.3255 52.4696 50.7518 52.0289 50.7518 51.4853C50.7518 49.7075 52.1508 48.2612 53.8703 48.2612C54.3961 48.2612 54.8224 47.8206 54.8224 47.2768C54.8224 46.7333 54.3961 46.2924 53.8703 46.2924ZM49.7996 48.4464C49.485 47.9972 49.1027 47.602 48.6683 47.2768C49.1026 46.9516 49.485 46.5564 49.7996 46.1074C50.1142 46.5564 50.4964 46.9517 50.9308 47.2768C50.4964 47.602 50.1142 47.9974 49.7996 48.4464Z" fill="#6C97FD"/>
<path d="M14.3823 17.8857C13.8565 17.8857 13.4302 18.3265 13.4302 18.8701V35.6896C13.4302 36.169 13.7643 36.5786 14.2213 36.6597C14.2875 36.6714 14.3832 36.6885 16.1494 36.6885C17.0065 36.6885 18.2576 36.6844 20.0894 36.6739C20.6153 36.6709 21.0392 36.2277 21.0362 35.684C21.0333 35.1423 20.6076 34.7052 20.0842 34.7052C20.0824 34.7052 20.0805 34.7052 20.0788 34.7052C18.6349 34.7135 16.5207 34.7219 15.3346 34.7188V18.8701C15.3345 18.3265 14.9081 17.8857 14.3823 17.8857V17.8857Z" fill="#6C97FD"/>
<path d="M40.3921 36.5084C40.5588 36.6298 40.7501 36.6882 40.9397 36.6882C41.2389 36.6882 41.5334 36.5428 41.7189 36.2707L47.0826 28.3991L52.4384 36.27C52.6238 36.5425 52.9186 36.6882 53.218 36.6882C53.4073 36.6882 53.5985 36.6299 53.7651 36.5088C54.1952 36.196 54.2985 35.5819 53.996 35.1374L48.2476 26.6894L53.1896 19.4369C53.4924 18.9925 53.3894 18.3784 52.9596 18.0653C52.5297 17.7521 51.9357 17.8587 51.6328 18.3031L47.0837 24.9789L42.5415 18.3036C42.2389 17.8588 41.645 17.7521 41.2149 18.0649C40.7848 18.3776 40.6814 18.9917 40.984 19.4363L45.9187 26.6885L40.1621 35.1367C39.8593 35.5812 39.9623 36.1954 40.3921 36.5084V36.5084Z" fill="#6C97FD"/>
<path d="M26.8031 35.6459C27.8474 36.3357 29.0292 36.6863 30.3157 36.6881H30.3264C31.4442 36.6881 32.49 36.4386 33.4351 35.9467C35.7853 34.7229 37.0276 32.8193 37.0276 30.4413V18.8701C37.0276 18.3265 36.6012 17.8857 36.0754 17.8857C35.5496 17.8857 35.1233 18.3265 35.1233 18.8701V30.4413C35.1233 32.071 34.2909 33.2968 32.5785 34.1883C31.9015 34.5409 31.1438 34.7195 30.3261 34.7194C30.3235 34.7194 30.3208 34.7194 30.3182 34.7194C29.3999 34.7181 28.5622 34.4716 27.8282 33.9867C26.3458 33.0076 25.7134 31.9508 25.7134 30.4534V18.8701C25.7134 18.3265 25.2871 17.8857 24.7612 17.8857C24.2354 17.8857 23.8091 18.3265 23.8091 18.8701V30.4534C23.8092 32.6168 24.7885 34.3151 26.8031 35.6459V35.6459Z" fill="#6C97FD"/>
</svg>
